<svg width="90" height="89" viewBox="0 0 90 89" fill="none" xmlns="http://www.w3.org/2000/svg">
<g filter="url(#filter0_d_1_3)">
<ellipse cx="45" cy="40.5" rx="40" ry="39.5" fill="#FFB3D7"/>
<path d="M45 80.5C67.3616 80.5 85.5 62.5973 85.5 40.5C85.5 18.4027 67.3616 0.5 45 0.5C22.6384 0.5 4.5 18.4027 4.5 40.5C4.5 62.5973 22.6384 80.5 45 80.5Z" stroke="black"/>
</g>
<path d="M27.0284 34.1364H29.892L31.4773 36.3352L32.5085 37.767L35.1847 41.5H32.1165L30.3011 38.9943L29.5852 37.8011L27.0284 34.1364ZM36.642 31.4773C36.3352 33.3295 35.7301 34.9091 34.8267 36.2159C33.929 37.517 32.8324 38.5142 31.5369 39.2074C30.2472 39.8949 28.858 40.2386 27.3693 40.2386C25.8068 40.2386 24.4659 39.875 23.3466 39.1477C22.2273 38.4148 21.4205 37.3665 20.9261 36.0028C20.4375 34.6392 20.3523 33.0028 20.6705 31.0938C20.9773 29.2472 21.5795 27.6676 22.4773 26.3551C23.375 25.0426 24.4744 24.0398 25.7756 23.3466C27.0767 22.6534 28.4801 22.3068 29.9858 22.3068C31.5369 22.3068 32.8665 22.6733 33.9744 23.4062C35.0881 24.1335 35.8892 25.1818 36.3778 26.5511C36.8722 27.9205 36.9602 29.5625 36.642 31.4773ZM33.5312 31.0938C33.7415 29.804 33.7216 28.7159 33.4716 27.8295C33.2273 26.9432 32.7926 26.2756 32.1676 25.8267C31.5426 25.3722 30.7727 25.1449 29.858 25.1449C28.8693 25.1449 27.9545 25.392 27.1136 25.8864C26.2784 26.375 25.5682 27.0909 24.983 28.0341C24.4034 28.9773 24.0057 30.125 23.7898 31.4773C23.5625 32.7727 23.5767 33.8608 23.8324 34.7415C24.0881 35.6222 24.5312 36.2869 25.1619 36.7358C25.7926 37.179 26.5625 37.4006 27.4716 37.4006C28.4545 37.4006 29.3636 37.1562 30.1989 36.6676C31.0341 36.179 31.7415 35.4659 32.321 34.5284C32.9062 33.5909 33.3097 32.446 33.5312 31.0938ZM38.1037 40L38.4446 38.0312L49.5156 25.196H40.5071L40.9503 22.5455H53.8707L53.5554 24.5142L42.4588 37.3494H51.4673L51.0241 40H38.1037ZM55.7884 22.5455H59.3594L62.3509 30.267H62.5384L68.0696 22.5455H71.6406L63.4759 33.4886L62.3935 40H59.2401L60.3224 33.4886L55.7884 22.5455Z" fill="black"/>
<path d="M41.304 57.8693L41.3466 57.5881C41.5227 56.5767 41.7557 55.7699 42.0455 55.1676C42.3409 54.5653 42.696 54.0824 43.1108 53.7188C43.5313 53.3494 44.0114 53.0085 44.5511 52.696C44.9318 52.4801 45.2813 52.2443 45.5994 51.9886C45.9176 51.7273 46.1847 51.4375 46.4006 51.1193C46.6165 50.8011 46.7557 50.4403 46.8182 50.0369C46.892 49.5881 46.8523 49.1989 46.6989 48.8693C46.5455 48.5398 46.3068 48.2841 45.983 48.1023C45.6591 47.9205 45.2813 47.8295 44.8494 47.8295C44.446 47.8295 44.0455 47.9176 43.6477 48.0938C43.2557 48.2642 42.9119 48.5256 42.6165 48.8778C42.321 49.2244 42.1193 49.6648 42.0114 50.1989H38.9773C39.1875 49.1193 39.5994 48.2159 40.2131 47.4886C40.8267 46.7614 41.5739 46.2159 42.4545 45.8523C43.3352 45.4886 44.2727 45.3068 45.267 45.3068C46.3523 45.3068 47.2756 45.4972 48.0369 45.8778C48.804 46.2585 49.3608 46.8011 49.7074 47.5057C50.0597 48.2045 50.1563 49.0341 49.9972 49.9943C49.8892 50.642 49.6875 51.2216 49.392 51.733C49.1023 52.2443 48.733 52.6989 48.2841 53.0966C47.8409 53.4943 47.3352 53.8466 46.767 54.1534C46.2557 54.4318 45.8267 54.7216 45.4801 55.0227C45.1392 55.3239 44.8636 55.679 44.6534 56.0881C44.4489 56.4972 44.2926 56.9972 44.1847 57.5881L44.142 57.8693H41.304ZM42.0966 63.1875C41.5739 63.1875 41.142 63.0057 40.8011 62.642C40.4602 62.2784 40.3011 61.8352 40.3239 61.3125C40.3466 60.8011 40.554 60.3665 40.946 60.0085C41.3381 59.6506 41.7898 59.4716 42.3011 59.4716C42.8068 59.4716 43.2358 59.6534 43.5881 60.017C43.946 60.3807 44.108 60.8125 44.0739 61.3125C44.0511 61.6648 43.9432 61.983 43.75 62.267C43.5625 62.5511 43.3239 62.7756 43.0341 62.9403C42.7443 63.1051 42.4318 63.1875 42.0966 63.1875Z" fill="black"/>
<defs>
<filter id="filter0_d_1_3" x="0" y="0" width="90" height="89" filterUnits="userSpaceOnUse" color-interpolation-filters="sRGB">
<feFlood flood-opacity="0" result="BackgroundImageFix"/>
<feColorMatrix in="SourceAlpha" type="matrix" values="0 0 0 0 0 0 0 0 0 0 0 0 0 0 0 0 0 0 127 0" result="hardAlpha"/>
<feOffset dy="4"/>
<feGaussianBlur stdDeviation="2"/>
<feComposite in2="hardAlpha" operator="out"/>
<feColorMatrix type="matrix" values="0 0 0 0 0 0 0 0 0 0 0 0 0 0 0 0 0 0 0.25 0"/>
<feBlend mode="normal" in2="BackgroundImageFix" result="effect1_dropShadow_1_3"/>
<feBlend mode="normal" in="SourceGraphic" in2="effect1_dropShadow_1_3" result="shape"/>
</filter>
</defs>
</svg>

